<svg id="visual" viewBox="0 0 900 600" width="900" height="600" xmlns="http://www.w3.org/2000/svg" xmlns:xlink="http://www.w3.org/1999/xlink" version="1.1"><rect x="0" y="0" width="900" height="600" fill="#001220"></rect><path d="M0 431L21.5 423.8C43 416.7 86 402.3 128.8 393.3C171.7 384.3 214.3 380.7 257.2 382.5C300 384.3 343 391.7 385.8 394.5C428.7 397.3 471.3 395.7 514.2 393.3C557 391 600 388 642.8 385.3C685.7 382.7 728.3 380.3 771.2 385.3C814 390.3 857 402.7 878.5 408.8L900 415L900 601L878.5 601C857 601 814 601 771.2 601C728.3 601 685.7 601 642.8 601C600 601 557 601 514.2 601C471.3 601 428.7 601 385.8 601C343 601 300 601 257.2 601C214.3 601 171.7 601 128.8 601C86 601 43 601 21.5 601L0 601Z" fill="#1efe80"></path><path d="M0 438L21.5 440.8C43 443.7 86 449.3 128.8 447.3C171.7 445.3 214.3 435.7 257.2 429C300 422.3 343 418.7 385.8 415.5C428.7 412.3 471.3 409.7 514.2 416.3C557 423 600 439 642.8 440C685.7 441 728.3 427 771.2 417C814 407 857 401 878.5 398L900 395L900 601L878.5 601C857 601 814 601 771.2 601C728.3 601 685.7 601 642.8 601C600 601 557 601 514.2 601C471.3 601 428.7 601 385.8 601C343 601 300 601 257.2 601C214.3 601 171.7 601 128.8 601C86 601 43 601 21.5 601L0 601Z" fill="#00c2aa"></path><path d="M0 472L21.5 477C43 482 86 492 128.8 494C171.7 496 214.3 490 257.2 485.5C300 481 343 478 385.8 480.8C428.7 483.7 471.3 492.3 514.2 488.5C557 484.7 600 468.3 642.8 464.2C685.7 460 728.3 468 771.2 469.2C814 470.3 857 464.7 878.5 461.8L900 459L900 601L878.5 601C857 601 814 601 771.2 601C728.3 601 685.7 601 642.8 601C600 601 557 601 514.2 601C471.3 601 428.7 601 385.8 601C343 601 300 601 257.2 601C214.3 601 171.7 601 128.8 601C86 601 43 601 21.5 601L0 601Z" fill="#008292"></path><path d="M0 523L21.5 521.5C43 520 86 517 128.8 515.8C171.7 514.7 214.3 515.3 257.2 518.8C300 522.3 343 528.7 385.8 525.2C428.7 521.7 471.3 508.3 514.2 506.7C557 505 600 515 642.8 517.2C685.7 519.3 728.3 513.7 771.2 511.5C814 509.3 857 510.7 878.5 511.3L900 512L900 601L878.5 601C857 601 814 601 771.2 601C728.3 601 685.7 601 642.8 601C600 601 557 601 514.2 601C471.3 601 428.7 601 385.8 601C343 601 300 601 257.2 601C214.3 601 171.7 601 128.8 601C86 601 43 601 21.5 601L0 601Z" fill="#05465b"></path><path d="M0 560L21.5 556.2C43 552.3 86 544.7 128.8 545.7C171.7 546.7 214.3 556.3 257.2 559.3C300 562.3 343 558.7 385.8 552C428.7 545.3 471.3 535.7 514.2 532.5C557 529.3 600 532.7 642.8 536.7C685.7 540.7 728.3 545.3 771.2 544.7C814 544 857 538 878.5 535L900 532L900 601L878.5 601C857 601 814 601 771.2 601C728.3 601 685.7 601 642.8 601C600 601 557 601 514.2 601C471.3 601 428.7 601 385.8 601C343 601 300 601 257.2 601C214.3 601 171.7 601 128.8 601C86 601 43 601 21.5 601L0 601Z" fill="#001220"></path></svg>